<svg width="32" height="32" viewBox="0 0 32 32" fill="none" xmlns="http://www.w3.org/2000/svg">
  <defs>
    <linearGradient id="primaryGradient" x1="0%" y1="0%" x2="100%" y2="100%">
      <stop offset="0%" style="stop-color:#10b981;stop-opacity:1" />
      <stop offset="50%" style="stop-color:#3b82f6;stop-opacity:1" />
      <stop offset="100%" style="stop-color:#0ea5e9;stop-opacity:1" />
    </linearGradient>
    <linearGradient id="secondaryGradient" x1="0%" y1="0%" x2="100%" y2="100%">
      <stop offset="0%" style="stop-color:#ffffff;stop-opacity:0.9" />
      <stop offset="100%" style="stop-color:#ffffff;stop-opacity:0.7" />
    </linearGradient>
  </defs>
  
  <!-- Background circle -->
  <circle cx="16" cy="16" r="15" fill="url(#primaryGradient)"/>
  
  <!-- AI Brain/Neural Network -->
  <g fill="none" stroke="url(#secondaryGradient)" stroke-width="1.5" stroke-linecap="round" stroke-linejoin="round">
    <!-- Main brain outline -->
    <path d="M8 14c0-4 3-7 7-7s7 3 7 7c1 0 2 1 2 3s-1 3-2 3c0 2-1 4-3 5-1 1-3 1-4 1s-3 0-4-1c-2-1-3-3-3-5-1 0-2-1-2-3s1-3 2-3z"/>
    
    <!-- Neural network nodes -->
    <circle cx="12" cy="12" r="1" fill="white"/>
    <circle cx="16" cy="10" r="1" fill="white"/>
    <circle cx="20" cy="12" r="1" fill="white"/>
    <circle cx="11" cy="16" r="1" fill="white"/>
    <circle cx="16" cy="15" r="1" fill="white"/>
    <circle cx="21" cy="16" r="1" fill="white"/>
    <circle cx="14" cy="20" r="1" fill="white"/>
    <circle cx="18" cy="20" r="1" fill="white"/>
    
    <!-- Neural connections -->
    <path d="M12 12 L16 10"/>
    <path d="M16 10 L20 12"/>
    <path d="M12 12 L11 16"/>
    <path d="M16 10 L16 15"/>
    <path d="M20 12 L21 16"/>
    <path d="M11 16 L16 15"/>
    <path d="M16 15 L21 16"/>
    <path d="M11 16 L14 20"/>
    <path d="M16 15 L14 20"/>
    <path d="M16 15 L18 20"/>
    <path d="M21 16 L18 20"/>
  </g>
  
  <!-- AI spark/energy effect -->
  <g fill="white" opacity="0.8">
    <circle cx="10" cy="8" r="0.5"/>
    <circle cx="22" cy="10" r="0.5"/>
    <circle cx="24" cy="18" r="0.5"/>
    <circle cx="8" cy="22" r="0.5"/>
  </g>
</svg> 