<svg width="32" height="32" viewBox="0 0 32 32" fill="none" xmlns="http://www.w3.org/2000/svg">
  <defs>
    <linearGradient id="primaryGradient" x1="0%" y1="0%" x2="100%" y2="100%">
      <stop offset="0%" style="stop-color:#10b981;stop-opacity:1" />
      <stop offset="50%" style="stop-color:#3b82f6;stop-opacity:1" />
      <stop offset="100%" style="stop-color:#0ea5e9;stop-opacity:1" />
    </linearGradient>
    
    <linearGradient id="secondaryGradient" x1="0%" y1="0%" x2="100%" y2="100%">
      <stop offset="0%" style="stop-color:#34d399;stop-opacity:0.8" />
      <stop offset="100%" style="stop-color:#60a5fa;stop-opacity:0.8" />
    </linearGradient>
  </defs>
  
  <!-- Background -->
  <rect width="32" height="32" rx="4" fill="url(#primaryGradient)" opacity="0.1"/>
  
  <!-- Central AI core (simplified hexagon) -->
  <polygon points="16,6 22,9 22,17 16,20 10,17 10,9" 
           fill="none" 
           stroke="url(#primaryGradient)" 
           stroke-width="1.5"/>
  
  <!-- Inner core -->
  <circle cx="16" cy="13" r="2.5" fill="url(#secondaryGradient)" opacity="0.7"/>
  <circle cx="16" cy="13" r="1.5" fill="url(#primaryGradient)"/>
  
  <!-- Data input/output -->
  <rect x="2" y="10" width="6" height="2" rx="1" fill="url(#secondaryGradient)" opacity="0.6"/>
  <rect x="2" y="14" width="6" height="2" rx="1" fill="url(#secondaryGradient)" opacity="0.6"/>
  
  <rect x="24" y="10" width="6" height="2" rx="1" fill="url(#secondaryGradient)" opacity="0.6"/>
  <rect x="24" y="14" width="6" height="2" rx="1" fill="url(#secondaryGradient)" opacity="0.6"/>
  
  <!-- Connection lines -->
  <path d="M8 11 L10 11" stroke="url(#primaryGradient)" stroke-width="1" opacity="0.8"/>
  <path d="M8 15 L10 13" stroke="url(#primaryGradient)" stroke-width="1" opacity="0.8"/>
  
  <path d="M22 11 L24 11" stroke="url(#primaryGradient)" stroke-width="1" opacity="0.8"/>
  <path d="M22 13 L24 15" stroke="url(#primaryGradient)" stroke-width="1" opacity="0.8"/>
  
  <!-- Network nodes -->
  <circle cx="8" cy="4" r="1" fill="url(#primaryGradient)" opacity="0.8"/>
  <circle cx="16" cy="3" r="1" fill="url(#primaryGradient)" opacity="0.8"/>
  <circle cx="24" cy="4" r="1" fill="url(#primaryGradient)" opacity="0.8"/>
  
  <circle cx="8" cy="28" r="1" fill="url(#primaryGradient)" opacity="0.8"/>
  <circle cx="16" cy="29" r="1" fill="url(#primaryGradient)" opacity="0.8"/>
  <circle cx="24" cy="28" r="1" fill="url(#primaryGradient)" opacity="0.8"/>
  
  <!-- Network connections -->
  <path d="M8 4 L16 3 L24 4" stroke="url(#secondaryGradient)" stroke-width="0.5" opacity="0.6" fill="none"/>
  <path d="M8 28 L16 29 L24 28" stroke="url(#secondaryGradient)" stroke-width="0.5" opacity="0.6" fill="none"/>
  
  <!-- Bottom workflow -->
  <rect x="6" y="24" width="3" height="2" rx="0.5" fill="url(#primaryGradient)" opacity="0.6"/>
  <rect x="11" y="24" width="3" height="2" rx="0.5" fill="url(#primaryGradient)" opacity="0.6"/>
  <rect x="16" y="24" width="3" height="2" rx="0.5" fill="url(#primaryGradient)" opacity="0.6"/>
  <rect x="21" y="24" width="3" height="2" rx="0.5" fill="url(#primaryGradient)" opacity="0.6"/>
  
  <!-- Animated pulsing core -->
  <circle cx="16" cy="13" r="1" fill="url(#primaryGradient)" opacity="0.8">
    <animate attributeName="r" values="1;2;1" dur="2s" repeatCount="indefinite"/>
    <animate attributeName="opacity" values="0.8;0.3;0.8" dur="2s" repeatCount="indefinite"/>
  </circle>
</svg> 