<svg width="32" height="32" viewBox="0 0 32 32" fill="none" xmlns="http://www.w3.org/2000/svg">
  <defs>
    <linearGradient id="brainGradient" x1="0%" y1="0%" x2="100%" y2="100%">
      <stop offset="0%" style="stop-color:#10b981;stop-opacity:1" />
      <stop offset="50%" style="stop-color:#3b82f6;stop-opacity:1" />
      <stop offset="100%" style="stop-color:#0ea5e9;stop-opacity:1" />
    </linearGradient>
  </defs>
  
  <!-- Background circle -->
  <circle cx="16" cy="16" r="15" fill="url(#brainGradient)"/>
  
  <!-- Stylized AI brain -->
  <g fill="white" opacity="0.9">
    <!-- Brain hemispheres -->
    <path d="M8 12c0-3 2-5 5-5s5 2 5 5v8c0 2-1 3-2 3h-6c-1 0-2-1-2-3V12z"/>
    <path d="M16 12c0-3 2-5 5-5s5 2 5 5v8c0 2-1 3-2 3h-6c-1 0-2-1-2-3V12z"/>
  </g>
  
  <!-- Neural pathways -->
  <g stroke="rgba(255,255,255,0.7)" stroke-width="1" fill="none">
    <path d="M10 14 Q12 12 14 14"/>
    <path d="M18 14 Q20 12 22 14"/>
    <path d="M12 16 Q14 18 16 16"/>
    <path d="M16 18 Q18 16 20 18"/>
  </g>
  
  <!-- AI nodes -->
  <g fill="rgba(255,255,255,0.8)">
    <circle cx="11" cy="13" r="0.8"/>
    <circle cx="15" cy="11" r="0.8"/>
    <circle cx="17" cy="13" r="0.8"/>
    <circle cx="21" cy="11" r="0.8"/>
    <circle cx="13" cy="17" r="0.8"/>
    <circle cx="19" cy="17" r="0.8"/>
  </g>
</svg> 