<svg width="32" height="32" viewBox="0 0 32 32" fill="none" xmlns="http://www.w3.org/2000/svg">
  <defs>
    <linearGradient id="chipGradient" x1="0%" y1="0%" x2="100%" y2="100%">
      <stop offset="0%" style="stop-color:#10b981;stop-opacity:1" />
      <stop offset="50%" style="stop-color:#3b82f6;stop-opacity:1" />
      <stop offset="100%" style="stop-color:#0ea5e9;stop-opacity:1" />
    </linearGradient>
  </defs>
  
  <!-- Background circle -->
  <circle cx="16" cy="16" r="15" fill="url(#chipGradient)"/>
  
  <!-- AI Chip outline -->
  <rect x="8" y="8" width="16" height="16" rx="2" fill="none" stroke="white" stroke-width="1.5"/>
  
  <!-- Circuit traces -->
  <g stroke="white" stroke-width="1" fill="none" opacity="0.8">
    <!-- Horizontal lines -->
    <line x1="6" y1="12" x2="8" y2="12"/>
    <line x1="24" y1="12" x2="26" y2="12"/>
    <line x1="6" y1="16" x2="8" y2="16"/>
    <line x1="24" y1="16" x2="26" y2="16"/>
    <line x1="6" y1="20" x2="8" y2="20"/>
    <line x1="24" y1="20" x2="26" y2="20"/>
    
    <!-- Vertical lines -->
    <line x1="12" y1="6" x2="12" y2="8"/>
    <line x1="16" y1="6" x2="16" y2="8"/>
    <line x1="20" y1="6" x2="20" y2="8"/>
    <line x1="12" y1="24" x2="12" y2="26"/>
    <line x1="16" y1="24" x2="16" y2="26"/>
    <line x1="20" y1="24" x2="20" y2="26"/>
  </g>
  
  <!-- Internal circuit pattern -->
  <g fill="white" opacity="0.9">
    <!-- Central processing unit -->
    <rect x="12" y="12" width="8" height="8" rx="1"/>
    
    <!-- AI indicators -->
    <circle cx="14" cy="14" r="0.8" fill="url(#chipGradient)"/>
    <circle cx="18" cy="14" r="0.8" fill="url(#chipGradient)"/>
    <circle cx="14" cy="18" r="0.8" fill="url(#chipGradient)"/>
    <circle cx="18" cy="18" r="0.8" fill="url(#chipGradient)"/>
  </g>
  
  <!-- Connection dots -->
  <g fill="rgba(255,255,255,0.6)">
    <circle cx="6" cy="12" r="0.8"/>
    <circle cx="6" cy="16" r="0.8"/>
    <circle cx="6" cy="20" r="0.8"/>
    <circle cx="26" cy="12" r="0.8"/>
    <circle cx="26" cy="16" r="0.8"/>
    <circle cx="26" cy="20" r="0.8"/>
    <circle cx="12" cy="6" r="0.8"/>
    <circle cx="16" cy="6" r="0.8"/>
    <circle cx="20" cy="6" r="0.8"/>
    <circle cx="12" cy="26" r="0.8"/>
    <circle cx="16" cy="26" r="0.8"/>
    <circle cx="20" cy="26" r="0.8"/>
  </g>
</svg> 