<svg width="120" height="120" viewBox="0 0 120 120" fill="none" xmlns="http://www.w3.org/2000/svg">
  <defs>
    <!-- Gradient definitions -->
    <linearGradient id="primaryGradient" x1="0%" y1="0%" x2="100%" y2="100%">
      <stop offset="0%" style="stop-color:#10b981;stop-opacity:1" />
      <stop offset="50%" style="stop-color:#3b82f6;stop-opacity:1" />
      <stop offset="100%" style="stop-color:#0ea5e9;stop-opacity:1" />
    </linearGradient>
    
    <linearGradient id="secondaryGradient" x1="0%" y1="0%" x2="100%" y2="100%">
      <stop offset="0%" style="stop-color:#34d399;stop-opacity:1" />
      <stop offset="100%" style="stop-color:#60a5fa;stop-opacity:1" />
    </linearGradient>
    
    <linearGradient id="accentGradient" x1="0%" y1="0%" x2="100%" y2="100%">
      <stop offset="0%" style="stop-color:#10b981;stop-opacity:0.2" />
      <stop offset="100%" style="stop-color:#3b82f6;stop-opacity:0.2" />
    </linearGradient>
    
    <!-- Shadow filter -->
    <filter id="shadow" x="-20%" y="-20%" width="140%" height="140%">
      <feDropShadow dx="0" dy="4" stdDeviation="8" flood-color="#10b981" flood-opacity="0.3"/>
    </filter>
    
    <!-- Glow effect -->
    <filter id="glow" x="-20%" y="-20%" width="140%" height="140%">
      <feGaussianBlur stdDeviation="3" result="coloredBlur"/>
      <feMerge> 
        <feMergeNode in="coloredBlur"/>
        <feMergeNode in="SourceGraphic"/>
      </feMerge>
    </filter>
  </defs>
  
  <!-- Background circle with gradient -->
  <circle cx="60" cy="60" r="55" fill="url(#accentGradient)" stroke="url(#primaryGradient)" stroke-width="2"/>
  
  <!-- Main logo container -->
  <g filter="url(#shadow)">
    <!-- Outer ring -->
    <circle cx="60" cy="60" r="45" fill="none" stroke="url(#primaryGradient)" stroke-width="3" opacity="0.8"/>
    
    <!-- Inner decorative elements -->
    <g opacity="0.6">
      <!-- Tech circuit pattern -->
      <path d="M30 45 L35 45 L35 40 L40 40" stroke="url(#secondaryGradient)" stroke-width="2" fill="none"/>
      <path d="M90 45 L85 45 L85 40 L80 40" stroke="url(#secondaryGradient)" stroke-width="2" fill="none"/>
      <path d="M30 75 L35 75 L35 80 L40 80" stroke="url(#secondaryGradient)" stroke-width="2" fill="none"/>
      <path d="M90 75 L85 75 L85 80 L80 80" stroke="url(#secondaryGradient)" stroke-width="2" fill="none"/>
      
      <!-- AI node indicators -->
      <circle cx="35" cy="45" r="2" fill="url(#primaryGradient)"/>
      <circle cx="85" cy="45" r="2" fill="url(#primaryGradient)"/>
      <circle cx="35" cy="75" r="2" fill="url(#primaryGradient)"/>
      <circle cx="85" cy="75" r="2" fill="url(#primaryGradient)"/>
    </g>
    
    <!-- Central monogram -->
    <g filter="url(#glow)">
      <!-- Letter A -->
      <path d="M42 85 L42 65 L48 50 L52 50 L58 65 L58 85 M45 70 L55 70" 
            stroke="url(#primaryGradient)" 
            stroke-width="3" 
            fill="none" 
            stroke-linecap="round" 
            stroke-linejoin="round"/>
      
      <!-- Letter W -->
      <path d="M62 50 L66 85 L70 70 L74 85 L78 50" 
            stroke="url(#primaryGradient)" 
            stroke-width="3" 
            fill="none" 
            stroke-linecap="round" 
            stroke-linejoin="round"/>
    </g>
    
    <!-- Decorative dots around the monogram -->
    <g opacity="0.7">
      <circle cx="45" cy="35" r="1.5" fill="url(#secondaryGradient)"/>
      <circle cx="75" cy="35" r="1.5" fill="url(#secondaryGradient)"/>
      <circle cx="45" cy="95" r="1.5" fill="url(#secondaryGradient)"/>
      <circle cx="75" cy="95" r="1.5" fill="url(#secondaryGradient)"/>
      <circle cx="25" cy="60" r="1.5" fill="url(#secondaryGradient)"/>
      <circle cx="95" cy="60" r="1.5" fill="url(#secondaryGradient)"/>
    </g>
  </g>
  
  <!-- Animated elements for interactivity -->
  <g opacity="0.4">
    <circle cx="60" cy="25" r="1" fill="url(#primaryGradient)">
      <animate attributeName="opacity" values="0.4;1;0.4" dur="2s" repeatCount="indefinite"/>
    </circle>
    <circle cx="95" cy="40" r="1" fill="url(#primaryGradient)">
      <animate attributeName="opacity" values="0.4;1;0.4" dur="2.5s" repeatCount="indefinite"/>
    </circle>
    <circle cx="25" cy="80" r="1" fill="url(#primaryGradient)">
      <animate attributeName="opacity" values="0.4;1;0.4" dur="3s" repeatCount="indefinite"/>
    </circle>
  </g>
</svg> 