<svg width="120" height="120" viewBox="0 0 120 120" fill="none" xmlns="http://www.w3.org/2000/svg">
  <defs>
    <!-- Gradient definitions -->
    <linearGradient id="primaryGradient" x1="0%" y1="0%" x2="100%" y2="100%">
      <stop offset="0%" style="stop-color:#10b981;stop-opacity:1" />
      <stop offset="50%" style="stop-color:#3b82f6;stop-opacity:1" />
      <stop offset="100%" style="stop-color:#0ea5e9;stop-opacity:1" />
    </linearGradient>
    
    <linearGradient id="secondaryGradient" x1="0%" y1="0%" x2="100%" y2="100%">
      <stop offset="0%" style="stop-color:#34d399;stop-opacity:0.8" />
      <stop offset="100%" style="stop-color:#60a5fa;stop-opacity:0.8" />
    </linearGradient>
    
    <linearGradient id="accentGradient" x1="0%" y1="0%" x2="100%" y2="100%">
      <stop offset="0%" style="stop-color:#10b981;stop-opacity:0.3" />
      <stop offset="100%" style="stop-color:#3b82f6;stop-opacity:0.3" />
    </linearGradient>
    
    <!-- Glow effect -->
    <filter id="glow" x="-50%" y="-50%" width="200%" height="200%">
      <feGaussianBlur stdDeviation="2" result="coloredBlur"/>
      <feMerge> 
        <feMergeNode in="coloredBlur"/>
        <feMergeNode in="SourceGraphic"/>
      </feMerge>
    </filter>
    
    <!-- Shadow effect -->
    <filter id="shadow" x="-20%" y="-20%" width="140%" height="140%">
      <feDropShadow dx="0" dy="2" stdDeviation="4" flood-color="#10b981" flood-opacity="0.4"/>
    </filter>
  </defs>
  
  <!-- Background circle -->
  <circle cx="60" cy="60" r="55" fill="url(#accentGradient)" stroke="url(#primaryGradient)" stroke-width="1.5" opacity="0.6"/>
  
  <!-- Main architectural structure -->
  <g filter="url(#shadow)">
    <!-- Central AI processing unit -->
    <g filter="url(#glow)">
      <!-- Core hexagon (representing AI brain/processor) -->
      <polygon points="60,25 75,35 75,55 60,65 45,55 45,35" 
               fill="none" 
               stroke="url(#primaryGradient)" 
               stroke-width="2.5"/>
      
      <!-- Inner core -->
      <circle cx="60" cy="45" r="8" fill="url(#secondaryGradient)" opacity="0.6"/>
      <circle cx="60" cy="45" r="4" fill="url(#primaryGradient)"/>
    </g>
    
    <!-- Data flow architecture -->
    <g stroke="url(#primaryGradient)" stroke-width="2" fill="none">
      <!-- Input layer (left side) -->
      <rect x="15" y="35" width="20" height="8" rx="2" fill="url(#secondaryGradient)" opacity="0.4"/>
      <rect x="15" y="47" width="20" height="8" rx="2" fill="url(#secondaryGradient)" opacity="0.4"/>
      <rect x="15" y="59" width="20" height="8" rx="2" fill="url(#secondaryGradient)" opacity="0.4"/>
      
      <!-- Output layer (right side) -->
      <rect x="85" y="35" width="20" height="8" rx="2" fill="url(#secondaryGradient)" opacity="0.4"/>
      <rect x="85" y="47" width="20" height="8" rx="2" fill="url(#secondaryGradient)" opacity="0.4"/>
      <rect x="85" y="59" width="20" height="8" rx="2" fill="url(#secondaryGradient)" opacity="0.4"/>
      
      <!-- Connection lines (data flow) -->
      <path d="M35 39 L45 39" stroke="url(#primaryGradient)" stroke-width="1.5" opacity="0.8"/>
      <path d="M35 51 L45 45" stroke="url(#primaryGradient)" stroke-width="1.5" opacity="0.8"/>
      <path d="M35 63 L45 51" stroke="url(#primaryGradient)" stroke-width="1.5" opacity="0.8"/>
      
      <path d="M75 39 L85 39" stroke="url(#primaryGradient)" stroke-width="1.5" opacity="0.8"/>
      <path d="M75 45 L85 51" stroke="url(#primaryGradient)" stroke-width="1.5" opacity="0.8"/>
      <path d="M75 51 L85 63" stroke="url(#primaryGradient)" stroke-width="1.5" opacity="0.8"/>
    </g>
    
    <!-- IoT network nodes -->
    <g>
      <!-- Top nodes -->
      <circle cx="40" cy="20" r="3" fill="url(#primaryGradient)" opacity="0.8"/>
      <circle cx="60" cy="15" r="3" fill="url(#primaryGradient)" opacity="0.8"/>
      <circle cx="80" cy="20" r="3" fill="url(#primaryGradient)" opacity="0.8"/>
      
      <!-- Bottom nodes -->
      <circle cx="40" cy="100" r="3" fill="url(#primaryGradient)" opacity="0.8"/>
      <circle cx="60" cy="105" r="3" fill="url(#primaryGradient)" opacity="0.8"/>
      <circle cx="80" cy="100" r="3" fill="url(#primaryGradient)" opacity="0.8"/>
      
      <!-- Side nodes -->
      <circle cx="20" cy="30" r="2.5" fill="url(#secondaryGradient)" opacity="0.7"/>
      <circle cx="15" cy="60" r="2.5" fill="url(#secondaryGradient)" opacity="0.7"/>
      <circle cx="20" cy="90" r="2.5" fill="url(#secondaryGradient)" opacity="0.7"/>
      
      <circle cx="100" cy="30" r="2.5" fill="url(#secondaryGradient)" opacity="0.7"/>
      <circle cx="105" cy="60" r="2.5" fill="url(#secondaryGradient)" opacity="0.7"/>
      <circle cx="100" cy="90" r="2.5" fill="url(#secondaryGradient)" opacity="0.7"/>
    </g>
    
    <!-- Network connections -->
    <g stroke="url(#secondaryGradient)" stroke-width="1" opacity="0.5" fill="none">
      <!-- Top network -->
      <path d="M40 20 L60 15 L80 20"/>
      <path d="M60 15 L60 25"/>
      
      <!-- Bottom network -->
      <path d="M40 100 L60 105 L80 100"/>
      <path d="M60 105 L60 95"/>
      
      <!-- Side connections -->
      <path d="M20 30 L40 20"/>
      <path d="M20 90 L40 100"/>
      <path d="M100 30 L80 20"/>
      <path d="M100 90 L80 100"/>
      
      <!-- Vertical side connections -->
      <path d="M20 30 L15 60 L20 90"/>
      <path d="M100 30 L105 60 L100 90"/>
    </g>
    
    <!-- Bottom processing layer (automation/workflow) -->
    <g transform="translate(30, 75)">
      <!-- Workflow blocks -->
      <rect x="0" y="0" width="12" height="8" rx="2" fill="url(#primaryGradient)" opacity="0.6"/>
      <rect x="16" y="0" width="12" height="8" rx="2" fill="url(#primaryGradient)" opacity="0.6"/>
      <rect x="32" y="0" width="12" height="8" rx="2" fill="url(#primaryGradient)" opacity="0.6"/>
      <rect x="48" y="0" width="12" height="8" rx="2" fill="url(#primaryGradient)" opacity="0.6"/>
      
      <!-- Workflow arrows -->
      <path d="M12 4 L16 4" stroke="url(#primaryGradient)" stroke-width="1.5" marker-end="url(#arrow)"/>
      <path d="M28 4 L32 4" stroke="url(#primaryGradient)" stroke-width="1.5" marker-end="url(#arrow)"/>
      <path d="M44 4 L48 4" stroke="url(#primaryGradient)" stroke-width="1.5" marker-end="url(#arrow)"/>
    </g>
  </g>
  
  <!-- Animated data particles -->
  <g opacity="0.7">
    <!-- Flowing data points -->
    <circle cx="30" cy="45" r="1.5" fill="url(#primaryGradient)">
      <animate attributeName="cx" values="30;45;60;75;90" dur="3s" repeatCount="indefinite"/>
      <animate attributeName="opacity" values="0;1;1;1;0" dur="3s" repeatCount="indefinite"/>
    </circle>
    
    <circle cx="90" cy="55" r="1.5" fill="url(#secondaryGradient)">
      <animate attributeName="cx" values="90;75;60;45;30" dur="3.5s" repeatCount="indefinite"/>
      <animate attributeName="opacity" values="0;1;1;1;0" dur="3.5s" repeatCount="indefinite"/>
    </circle>
    
    <!-- Pulsing core -->
    <circle cx="60" cy="45" r="2" fill="url(#primaryGradient)" opacity="0.8">
      <animate attributeName="r" values="2;4;2" dur="2s" repeatCount="indefinite"/>
      <animate attributeName="opacity" values="0.8;0.4;0.8" dur="2s" repeatCount="indefinite"/>
    </circle>
  </g>
  
  <!-- Arrow marker definition -->
  <defs>
    <marker id="arrow" markerWidth="10" markerHeight="10" refX="8" refY="3" orient="auto" markerUnits="strokeWidth">
      <polygon points="0,0 0,6 9,3" fill="url(#primaryGradient)"/>
    </marker>
  </defs>
</svg> 